<?xml version="1.0" encoding="UTF-8" standalone="no"?>
<svg
   xmlns:dc="http://purl.org/dc/elements/1.1/"
   xmlns:cc="http://creativecommons.org/ns#"
   xmlns:rdf="http://www.w3.org/1999/02/22-rdf-syntax-ns#"
   xmlns:svg="http://www.w3.org/2000/svg"
   xmlns="http://www.w3.org/2000/svg"
   xmlns:sodipodi="http://sodipodi.sourceforge.net/DTD/sodipodi-0.dtd"
   xmlns:inkscape="http://www.inkscape.org/namespaces/inkscape"
   fill="none"
   height="48"
   viewBox="0 0 274 48"
   width="274"
   version="1.1"
   id="svg38"
   sodipodi:docname="big-logo.svg"
   inkscape:version="1.0.1 (3bc2e813f5, 2020-09-07)">
  <metadata
     id="metadata44">
    <rdf:RDF>
      <cc:Work
         rdf:about="">
        <dc:format>image/svg+xml</dc:format>
        <dc:type
           rdf:resource="http://purl.org/dc/dcmitype/StillImage" />
      </cc:Work>
    </rdf:RDF>
  </metadata>
  <defs
     id="defs42" />
  <sodipodi:namedview
     pagecolor="#ffffff"
     bordercolor="#666666"
     borderopacity="1"
     objecttolerance="10"
     gridtolerance="10"
     guidetolerance="10"
     inkscape:pageopacity="0"
     inkscape:pageshadow="2"
     inkscape:window-width="1364"
     inkscape:window-height="766"
     id="namedview40"
     showgrid="false"
     inkscape:zoom="5.6568543"
     inkscape:cx="105.63369"
     inkscape:cy="5.610678"
     inkscape:window-x="0"
     inkscape:window-y="0"
     inkscape:window-maximized="0"
     inkscape:current-layer="svg38"
     inkscape:document-rotation="0" />
  <path
     d="m0 23c0-10.8423 0-16.26346 3.36827-19.63173s8.78943-3.36827 19.63173-3.36827h2c10.8423 0 16.2635 0 19.6317 3.36827 3.3683 3.36827 3.3683 8.78943 3.3683 19.63173v2c0 10.8423 0 16.2635-3.3683 19.6317-3.3682 3.3683-8.7894 3.3683-19.6317 3.3683h-2c-10.8423 0-16.26346 0-19.63173-3.3683-3.36827-3.3682-3.36827-8.7894-3.36827-19.6317z"
     fill="#2787f5"
     id="path2" />
  <path
     clip-rule="evenodd"
     d="m13.0009 15h-3.5008c-1.00024 0-1.2003.4708-1.2003.9898 0 .9271 1.18686 5.525 5.5262 11.6061 2.8929 4.1529 6.9687 6.4041 10.6776 6.4041 2.2253 0 2.5006-.5 2.5006-1.3612v-3.1388c0-1 .2108-1.1996.9154-1.1996.5193 0 1.4094.2596 3.4864 2.2619 2.3737 2.3731 2.765 3.4377 4.1001 3.4377h3.5008c1.0003 0 1.5004-.5 1.2119-1.4867-.3157-.9834-1.449-2.4103-2.9528-4.1016-.816-.9641-2.0399-2.0023-2.4108-2.5215-.5192-.6674-.3709-.9641 0-1.5573 0 0 4.2652-6.007 4.7103-8.0463.2225-.7417 0-1.2866-1.0587-1.2866h-3.5008c-.8901 0-1.3005.4708-1.5231.9898 0 0-1.7802 4.3384-4.3022 7.1565-.816.8157-1.1869 1.0753-1.632 1.0753-.2225 0-.5446-.2596-.5446-1.0011v-6.9339c0-.89-.2583-1.2866-1.0002-1.2866h-5.5013c-.5562 0-.8908.413-.8908.8045 0 .8436 1.261 1.0382 1.391 3.4113v5.1542c0 1.13-.2042 1.3349-.6492 1.3349-1.1868 0-4.0737-4.3578-5.7859-9.3442-.3355-.9692-.6721-1.3607-1.5668-1.3607z"
     fill="#fff"
     fill-rule="evenodd"
     id="path4" />
  <g
     fill="#000000"
     id="g20">
    <path
       d="m 143.94,12.5811 c -4.272,0 -8.037,2.1996 -9.137,6.0066 l 4.484,0.7614 c 0.677,-1.3536 2.2,-2.6226 4.399,-2.6226 2.665,0 4.23,1.9035 4.442,4.7799 h -4.738 c -6.472,0 -9.687,2.8341 -9.687,6.8949 0,4.1031 3.173,7.0218 7.657,7.0218 3.595,0 6.006,-2.0727 7.064,-3.8916 l 1.015,3.4686 h 3.596 V 22.6485 c 0,-6.3873 -3.469,-10.0674 -9.095,-10.0674 z M 142.502,31.32 c -2.369,0 -3.892,-1.2267 -3.892,-3.1302 0,-1.692 1.227,-2.8764 4.949,-2.8764 h 4.611 c 0,3.5955 -2.284,6.0066 -5.668,6.0066 z"
       id="path8" />
    <path
       d="m 185.913,35.0001 h 4.865 V 17.4456 h 7.614 v -4.4415 h -20.093 v 4.4415 h 7.614 z"
       id="path12" />
    <path
       d="m 222.618,23.7483 c 0,-6.345 -4.738,-11.1672 -11.421,-11.1672 -6.684,0 -11.421,4.7799 -11.421,11.421 0,6.6411 4.737,11.421 11.421,11.421 4.568,0 8.883,-2.1573 10.532,-6.345 l -4.568,-0.7614 c -1.058,1.5651 -3.088,2.6649 -5.668,2.6649 -3.723,0 -6.176,-2.2842 -6.641,-5.6682 h 17.681 c 0.042,-0.4653 0.085,-0.9729 0.085,-1.5651 z m -11.421,-6.9372 c 3.045,0 5.329,1.9458 6.133,4.6953 h -12.182 c 0.803,-2.8341 3.088,-4.6953 6.049,-4.6953 z"
       id="path14" />
    <path
       d="m 131.618,23.7483 c 0,-6.345 -4.738,-11.1672 -11.421,-11.1672 -6.684,0 -11.421,4.7799 -11.421,11.421 0,6.6411 4.737,11.421 11.421,11.421 4.568,0 8.883,-2.1573 10.532,-6.345 l -4.568,-0.7614 c -1.058,1.5651 -3.088,2.6649 -5.668,2.6649 -3.723,0 -6.176,-2.2842 -6.641,-5.6682 h 17.681 c 0.042,-0.4653 0.085,-0.9729 0.085,-1.5651 z m -11.421,-6.9372 c 3.045,0 5.329,1.9458 6.133,4.6953 h -12.182 c 0.803,-2.8341 3.088,-4.6953 6.049,-4.6953 z"
       id="path16" />
    <path
       d="m 103.8929,23.5791 c 1.9035,-0.8883 3.1302,-2.3688 3.1302,-4.653 0,-3.4686 -3.1725,-5.922 -7.7409,-5.922 H 88.7495 v 21.996 h 10.998 c 4.7376,0 8.037,-2.5803 8.037,-6.0912 0,-2.6649 -1.7343,-4.653 -3.8916,-5.3298 z M 93.614,17.0226 h 5.6682 c 1.692,0 2.8764,1.0152 2.8764,2.4111 0,1.3959 -1.1844,2.3688 -2.8764,2.3688 H 93.614 Z m 6.1335,13.959 H 93.614 v -5.3721 h 6.1335 c 1.9035,0 3.1725,1.0998 3.1725,2.7072 0,1.6074 -1.269,2.6649 -3.1725,2.6649 z"
       id="path18" />
    <path
       d="m 178.518,23.7483 c 0,-6.345 -4.738,-11.1672 -11.421,-11.1672 -6.684,0 -11.421,4.7799 -11.421,11.421 0,6.6411 4.737,11.421 11.421,11.421 4.568,0 8.883,-2.1573 10.532,-6.345 l -4.568,-0.7614 c -1.058,1.5651 -3.088,2.6649 -5.668,2.6649 -3.723,0 -6.176,-2.2842 -6.641,-5.6682 h 17.681 c 0.042,-0.4653 0.085,-0.9729 0.085,-1.5651 z m -11.421,-6.9372 c 3.045,0 5.329,1.9458 6.133,4.6953 h -12.182 c 0.803,-2.8341 3.088,-4.6953 6.049,-4.6953 z"
       id="path916" />
  </g>
  <rect
     fill="#ffffff"
     opacity="0"
     id="rect38"
     width="16.565248"
     height="13.003433"
     x="93.613998"
     y="25.609501" />
  <rect
     fill="#ffffff"
     opacity="0"
     id="rect40"
     width="16.565247"
     height="13.003433"
     x="93.613998"
     y="25.609501" />
  <path
     fill="#ffffff"
     opacity="0"
     id="path42"
     d="m 97.353653,28.510922 c 1.033674,0.604878 2.047561,1.243492 3.063737,1.877268 0.89615,0.527671 1.78169,1.065209 2.61904,1.683397 0.33801,0.298843 0.70176,0.572194 1.0127,0.900159 0.18739,0.216921 0.39036,0.419494 0.58992,0.62508 0,0 2.97538,-1.824936 2.97538,-1.824936 v 0 c -0.20461,-0.195085 -0.40278,-0.396575 -0.5849,-0.612988 -0.32622,-0.352597 -0.72535,-0.621697 -1.09122,-0.931538 -0.86301,-0.600836 -1.74721,-1.169927 -2.66695,-1.680557 -1.00986,-0.617611 -2.02307,-1.231579 -2.99485,-1.908229 0,0 -2.922857,1.872344 -2.922857,1.872344 z" />
  <rect
     fill="#ffffff"
     opacity="1"
     stroke="#ffffff"
     id="rect46"
     width="14.717408"
     height="9.6148129"
     x="93.613998"
     y="25.609501" />
  <path
     fill="#ffffff"
     opacity="1"
     stroke="#ffffff"
     id="path915"
     d="m 104.31756,25.018323 c -0.35846,0.835593 -1.04309,1.330057 -1.78041,1.813057 -1.59196,0.934912 1.40294,-0.806551 2.09788,-1.220912 0.21046,-0.125483 -0.43919,0.217597 -0.6624,0.318665 0,0 -2.70796,2.142003 -2.70796,2.142003 v 0 c 1.57231,-0.653424 3.02144,-1.568588 4.45192,-2.48842 0.79308,-0.567283 1.32632,-1.097271 1.78116,-1.96921 0,0 -3.18019,1.404817 -3.18019,1.404817 z" />
  <circle
     id="path919"
     fill="#ffffff"
     stroke="#ffffff"
     cx="103.92861"
     cy="24.824562"
     r="0.11727763" />
  <path
     fill="#ffffff"
     opacity="1"
     stroke="#ffffff"
     id="path921"
     d="m 99.356447,34.009332 c 2.217303,0.18188 3.789243,0.06025 5.137123,-2.423453 0.1953,-0.359879 -0.6217,-0.535767 -0.96034,-0.765936 -0.36531,-0.248294 -0.76387,-0.443721 -1.14581,-0.665582 0,0 -2.735012,1.77337 -2.735012,1.77337 v 0 c 0.362502,0.215037 0.739972,0.40665 1.087522,0.645112 0.27063,0.185684 0.43715,0.671808 0.76182,0.623772 1.04149,-0.154091 2.05906,-0.584284 2.93357,-1.170517 0.37808,-0.253445 -0.90541,0.111034 -1.36055,0.116037 -0.30785,0.0034 -0.61274,-0.06066 -0.9191,-0.09098 0,0 -2.799223,1.958179 -2.799223,1.958179 z" />
  <path
     fill="#ffffff"
     stroke="#ffffff"
     stroke-width="1px"
     stroke-opacity="1"
     d="m 105.35862,23.980942 c -0.50784,0.455143 -0.94253,0.592893 -1.56429,0.858418 -0.2824,0.120601 -0.4783,0.224162 -0.77002,0.323083 -0.21307,0.07225 -0.40787,0.224815 -0.64486,0.224815"
     id="path29" />
  <rect
     fill="#ffffff"
     opacity="1"
     stroke="#ffffff;stroke-width:0.929879"
     id="rect965"
     width="4.0740242"
     height="4.5365829"
     x="91.854782"
     y="77.815758"
     transform="matrix(0.84864932,-0.52895588,0.3043917,0.95254695,0,0)" />
  <rect
     fill="#ffffff"
     opacity="1"
     stroke="#ffffff"
     stroke-width="0.863395"
     id="rect969"
     width="2.1456742"
     height="0.93029499"
     x="94.543495"
     y="47.948189"
     transform="matrix(0.97380763,-0.22737349,0.18816434,0.98213756,0,0)" />
  <ellipse
     fill="#000000"
     opacity="1"
     stroke="#000000"
     stroke-width="3.03679"
     id="path973"
     cx="78.235947"
     cy="84.776855"
     rx="2.4877987"
     ry="0.78223324"
     transform="matrix(0.75976193,-0.65020136,0.51706122,0.85594842,0,0)" />
  <rect
     style="fill:#000000;stroke:#000000"
     id="rect116"
     width="1.0065761"
     height="17.275089"
     x="92.522835"
     y="17.266369" />
  <rect
     style="fill:#2787f5;fill-opacity:1;stroke:#2787f5;stroke-opacity:1"
     id="rect126"
     width="13.451708"
     height="8.2496243"
     x="27.505991"
     y="15.397348" />
  <ellipse
     style="fill:#ffffff;fill-opacity:1;stroke:#ffffff;stroke-width:1.15687;stroke-opacity:1"
     id="path128"
     cx="32.468094"
     cy="20.784248"
     rx="7.0771141"
     ry="5.217927" />
  <ellipse
     style="fill:#ffffff;stroke:#ffffff;stroke-width:0.941111"
     id="path46"
     cx="99.58773"
     cy="19.355326"
     rx="2.0433702"
     ry="1.8347697" />
  <rect
     style="fill:#000000;stroke:#000000;stroke-width:1.08712"
     id="rect54"
     width="3.5981107"
     height="13.760614"
     x="73.996071"
     y="79.68042"
     transform="matrix(0.79678536,-0.60426244,0.48030707,0.87710041,0,0)" />
  <rect
     style="fill:#000000;stroke:#000000;stroke-width:1.00351"
     id="rect78"
     width="4.0704503"
     height="25.96706"
     x="63.590054"
     y="46.606853"
     transform="matrix(0.86768267,-0.49711848,0.26556481,0.96409301,0,0)" />
  <ellipse
     style="fill:#ffffff;stroke:#ffffff;stroke-width:0.925189"
     id="path918"
     cx="167.31563"
     cy="23.809839"
     rx="6.3911319"
     ry="6.7735462" />
  <rect
     style="fill:#ffffff;stroke:#ffffff;stroke-width:0.891316"
     id="rect922"
     width="7.2376938"
     height="7.5180235"
     x="179.17908"
     y="70.72345"
     transform="matrix(0.84262423,0.538502,0.28720298,-0.95786975,0,0)" />
  <rect
     style="fill:#ffffff;stroke:#ffffff;stroke-width:0.891316"
     id="rect924"
     width="7.2376938"
     height="7.5180235"
     x="164.79028"
     y="112.93871"
     transform="matrix(0.84262423,-0.538502,0.28720298,0.95786975,0,0)" />
  <rect
     style="fill:#ffffff;stroke:#ffffff"
     id="rect926"
     width="5.1513672"
     height="2.2806139"
     x="176.50107"
     y="22.709589" />
  <ellipse
     style="fill:#2787f5;fill-opacity:1;stroke:#2787f5;stroke-width:1.15346;stroke-opacity:1"
     id="path934"
     cx="30.772503"
     cy="21.410091"
     rx="2.9207723"
     ry="2.2037678" />
  <rect
     style="fill:#000000;stroke:#000000;stroke-width:1.00351"
     id="rect41"
     width="4.0704503"
     height="25.96706"
     x="-89.238426"
     y="-32.196602"
     transform="matrix(-0.86768267,-0.49711848,-0.26556481,0.96409301,0,0)" />
  <rect
     style="fill:#ffffff;stroke:#ffffff"
     id="rect43"
     width="33.210125"
     height="4.228857"
     x="60.30323"
     y="8.1999998" />
  <rect
     style="fill:#ffffff;stroke:#ffffff;stroke-width:1.1944"
     id="rect45"
     width="49.660385"
     height="4.0344543"
     x="60.400433"
     y="35.597202" />
</svg>
