<?xml version="1.0" encoding="UTF-8" standalone="no"?>
<svg
   xmlns:dc="http://purl.org/dc/elements/1.1/"
   xmlns:cc="http://creativecommons.org/ns#"
   xmlns:rdf="http://www.w3.org/1999/02/22-rdf-syntax-ns#"
   xmlns:svg="http://www.w3.org/2000/svg"
   xmlns="http://www.w3.org/2000/svg"
   xmlns:sodipodi="http://sodipodi.sourceforge.net/DTD/sodipodi-0.dtd"
   xmlns:inkscape="http://www.inkscape.org/namespaces/inkscape"
   width="16"
   height="16"
   fill="currentColor"
   class="bi bi-house-door"
   viewBox="0 0 16 16"
   version="1.1"
   id="svg4"
   sodipodi:docname="home.svg"
   inkscape:version="1.0.2 (e86c870879, 2021-01-15)">
  <metadata
     id="metadata10">
    <rdf:RDF>
      <cc:Work
         rdf:about="">
        <dc:format>image/svg+xml</dc:format>
        <dc:type
           rdf:resource="http://purl.org/dc/dcmitype/StillImage" />
      </cc:Work>
    </rdf:RDF>
  </metadata>
  <defs
     id="defs8" />
  <sodipodi:namedview
     pagecolor="#ffffff"
     bordercolor="#666666"
     borderopacity="1"
     objecttolerance="10"
     gridtolerance="10"
     guidetolerance="10"
     inkscape:pageopacity="0"
     inkscape:pageshadow="2"
     inkscape:window-width="1364"
     inkscape:window-height="766"
     id="namedview6"
     showgrid="false"
     inkscape:zoom="35.6875"
     inkscape:cx="8"
     inkscape:cy="8"
     inkscape:window-x="0"
     inkscape:window-y="0"
     inkscape:window-maximized="0"
     inkscape:current-layer="svg4" />
  <path
     d="M 8.354,1.146 C 8.1586361,0.95014162 7.8413639,0.95014162 7.646,1.146 l -6,6 C 1.5522861,7.2399507 1.499763,7.3673011 1.5,7.5 v 7 C 1.5,14.776142 1.7238576,15 2,15 H 6.5 C 6.7761424,15 7,14.776142 7,14.5 v -4 h 2 v 4 C 9,14.776142 9.2238576,15 9.5,15 H 14 c 0.276142,0 0.5,-0.223858 0.5,-0.5 v -7 C 14.500237,7.3673011 14.447714,7.2399507 14.354,7.146 L 13,5.793 v 0 c -1.55762,-1.4978944 -1.549918,-1.5203721 0,0 z M 2.5,14 V 7.707 l 5.5,-5.5 5.5,5.5 V 14 H 10 V 10 C 10,9.7238576 9.7761424,9.5 9.5,9.5 h -3 C 6.2238576,9.5 6,9.7238576 6,10 v 4 z"
     id="path2"
     sodipodi:nodetypes="ccccssssccssssccccccccccccsssscc" />
</svg>
