<svg height="20" viewBox="0 0 16 16" width="20" xmlns="http://www.w3.org/2000/svg"><g fill="none" fill-rule="evenodd" opacity=".92"><path d="m0 0h16v16h-16z"></path><path d="m6.50005583 1c3.03759696 0 5.50005587 2.46256463 5.50005587 5.50029205 0 1.24838725-.4158819 2.3996359-1.116653 3.32274757l3.895625 3.90029188c.292724.2930623.2924499.7679359-.0006123 1.06066-.2930623.2927241-.7679359.29245-1.06066-.0006123l-3.89515071-3.899496c-.92307202.7008011-2.07427123 1.1167009-3.32260486 1.1167009-3.03759696 0-5.50005583-2.46256463-5.50005583-5.50029205s2.46245887-5.50029205 5.50005583-5.50029205zm0 1.5c-2.20915541 0-4.00005583 1.79097734-4.00005583 4.00029205 0 2.20931472 1.79090042 4.00029205 4.00005583 4.00029205s4.00005587-1.79097733 4.00005587-4.00029205c0-2.20931471-1.79090046-4.00029205-4.00005587-4.00029205z" fill="#ffffff" fill-rule="nonzero"></path></g></svg>