<?xml version="1.0" encoding="UTF-8" standalone="no"?>
<svg
   xmlns:dc="http://purl.org/dc/elements/1.1/"
   xmlns:cc="http://creativecommons.org/ns#"
   xmlns:rdf="http://www.w3.org/1999/02/22-rdf-syntax-ns#"
   xmlns:svg="http://www.w3.org/2000/svg"
   xmlns="http://www.w3.org/2000/svg"
   xmlns:sodipodi="http://sodipodi.sourceforge.net/DTD/sodipodi-0.dtd"
   xmlns:inkscape="http://www.inkscape.org/namespaces/inkscape"
   width="24"
   height="24"
   fill="currentColor"
   class="bi bi-house-door"
   viewBox="0 0 16 16"
   version="1.1"
   id="svg4"
   sodipodi:docname="home.svg"
   inkscape:version="1.0.2 (e86c870879, 2021-01-15)">
  <metadata
     id="metadata10">
    <rdf:RDF>
      <cc:Work
         rdf:about="">
        <dc:format>image/svg+xml</dc:format>
        <dc:type
           rdf:resource="http://purl.org/dc/dcmitype/StillImage" />
      </cc:Work>
    </rdf:RDF>
  </metadata>
  <defs
     id="defs8" />
  <sodipodi:namedview
     pagecolor="#ffffff"
     bordercolor="#666666"
     borderopacity="1"
     objecttolerance="10"
     gridtolerance="10"
     guidetolerance="10"
     inkscape:pageopacity="0"
     inkscape:pageshadow="2"
     inkscape:window-width="1364"
     inkscape:window-height="766"
     id="namedview6"
     showgrid="false"
     inkscape:zoom="35.6875"
     inkscape:cx="8"
     inkscape:cy="7.6263865"
     inkscape:window-x="0"
     inkscape:window-y="0"
     inkscape:window-maximized="0"
     inkscape:current-layer="svg4" />
  <path
     d="m 8.3775261,0.26472041 c -0.2359396,-0.21962721 -0.6191068,-0.21962721 -0.8550464,0 L 0.08703029,7.2832545 C 0.05369604,8.5982029 0.09632604,12.985163 0.10000096,15.239321 0.10000128,15.548977 0.37035256,15.8 0.70384759,15.8 H 6.1384641 c 0.3334946,0 0.6038456,-0.251023 0.6038459,-0.560679 v -4.48543 h 2.4153851 v 4.48543 C 9.1576955,15.548977 9.4280469,15.8 9.7615424,15.8 H 15.196156 C 15.529649,15.799999 15.8,15.548975 15.8,15.239321 V 7.389823 Z M 0.98429804,14.98863 0.96957521,7.5449065 7.9626913,1.114427 l 6.9565107,6.6007683 0.06914,7.3277617 -4.793083,-0.03633 -0.02499,-4.844034 c 0,-0.3096542 -0.123182,-0.3353081 -0.4566768,-0.3353081 L 6.2223276,9.8267267 C 5.8888401,9.8266734 5.7851355,9.9362994 5.7851359,10.245954 l -0.028531,4.745341 z"
     id="path2"
     style="stroke-width:1.16375"
     sodipodi:nodetypes="ccccsscccccccccccccccccsccc" />
</svg>
